<svg xmlns="http://www.w3.org/2000/svg" viewBox="0 0 100 100" fill="none">
	<circle cx="65" cy="30" r="20" fill="#F5A623"/>
	<path d="M10 28 C5 20, 14 10, 22 16 C25 24, 18 32, 10 28Z" fill="#2D5F3F"/>
	<path d="M6 45 C2 38, 10 30, 18 35 C20 42, 12 48, 6 45Z" fill="#2D5F3F"/>
	<path d="M14 58 C10 52, 20 46, 26 52 C26 58, 20 62, 14 58Z" fill="#2D5F3F"/>
	<rect x="35" y="52" width="30" height="28" fill="#C4943D"/>
	<polygon points="28,54 50,34 72,54" fill="#1B4D2E"/>
	<rect x="60" y="38" width="6" height="10" fill="#6B4423"/>
	<rect x="44" y="66" width="12" height="14" fill="#5D3A1A"/>
	<circle cx="54" cy="74" r="0.8" fill="#F5D76E"/>
	<rect x="38" y="58" width="8" height="8" fill="#F5D76E"/>
	<line x1="42" y1="58" x2="42" y2="66" stroke="#C4943D" stroke-width="0.5"/>
	<line x1="38" y1="62" x2="46" y2="62" stroke="#C4943D" stroke-width="0.5"/>
	<rect x="54" y="58" width="8" height="8" fill="#F5D76E"/>
	<line x1="58" y1="58" x2="58" y2="66" stroke="#C4943D" stroke-width="0.5"/>
	<line x1="54" y1="62" x2="62" y2="62" stroke="#C4943D" stroke-width="0.5"/>
</svg>
